<svg xmlns="http://www.w3.org/2000/svg" viewBox="0 0 64 64">
  <rect width="64" height="64" rx="15" fill="#171717"/>
  <path fill="none" stroke="#f4f4f4" stroke-width="4.6" stroke-linecap="round" stroke-linejoin="round" d="M31.9 12.5a12.2 12.2 0 0 1 20.5 8.9v7.4a12.2 12.2 0 0 1-6 21.1l-6.5 3.7A12.2 12.2 0 0 1 21.6 43v-7.4A12.2 12.2 0 0 1 27.7 14l6.4-3.7m-2.2 2.2 6.4 3.7a12.2 12.2 0 0 1 0 21.1L32 41m20.4-19.6-6.4 3.7a12.2 12.2 0 0 1-18.3-10.6M21.6 43l6.4-3.7a12.2 12.2 0 0 1 18.3 10.6M11.6 28.8 18 32.5a12.2 12.2 0 0 1 0 21.1m0-21.1 6.4 3.7a12.2 12.2 0 0 0 18.3-10.6"/>
</svg>
